# xmcd
#
# Track frame offsets: 
#        150
#        21137
#        33670
#        49202
#        67690
#        85757
#        100540
#        119300
#        137867
#        155637
#        172072
#
# Disc length: 2510 seconds
#
# Revision: 10
# Processed by: cddbd v1.5.2PL0 Copyright (c) Steve Scherf et al.
# Submitted via: ExactAudioCopyFreeDBPlugin 1.0
#
DISCID=8c09cc0b
DTITLE=Anna Nalick - Wreck of the Day
DYEAR=2005
DGENRE=Rock
TTITLE0=Breathe (2 AM)
TTITLE1=Citadel
TTITLE2=Paper Bag
TTITLE3=Wreck of the Day
TTITLE4=Satellite
TTITLE5=Forever Love (Digame)
TTITLE6=In the Rough
TTITLE7=In My Head
TTITLE8=Bleed
TTITLE9=Catalyst
TTITLE10=Consider This
EXTD=YEAR: 2005
EXTT0=
EXTT1=
EXTT2=
EXTT3=
EXTT4=
EXTT5=
EXTT6=
EXTT7=
EXTT8=
EXTT9=
EXTT10=
PLAYORDER=
